<svg xmlns="http://www.w3.org/2000/svg" xmlns:xlink="http://www.w3.org/1999/xlink" width="500" zoomAndPan="magnify" viewBox="0 0 375 225" height="300" preserveAspectRatio="xMidYMid meet" version="1.0"><defs><g/><clipPath id="0a13de812f"><path d="M 90 14 L 325 14 L 325 138.722656 L 90 138.722656 Z M 90 14 " clip-rule="nonzero"/></clipPath></defs><g clip-path="url(#0a13de812f)"><path fill="#38b6ff" d="M 168.253906 17.859375 C 134.410156 23.820312 107.144531 36.183594 90.4375 51.339844 C 106.636719 39.945312 129.46875 30.824219 156.753906 26.015625 C 222.03125 14.511719 287.914062 31.992188 303.90625 65.0625 C 317.328125 92.824219 291.3125 122.742188 244 138.441406 C 302.042969 123.878906 335.796875 89.742188 320.578125 58.273438 C 304.019531 24.042969 235.828125 5.945312 168.253906 17.859375 " fill-opacity="1" fill-rule="nonzero"/></g><path fill="#38b6ff" d="M 212.179688 85.082031 C 215.582031 85.546875 221.421875 92.011719 215.953125 103.003906 C 210.476562 113.996094 198.289062 111.976562 195.953125 103.714844 C 193.621094 95.457031 201.910156 83.671875 212.179688 85.082031 " fill-opacity="1" fill-rule="nonzero"/><path fill="#38b6ff" d="M 100.058594 91.40625 C 100.058594 91.40625 124.449219 59.078125 145.414062 60.652344 C 166.378906 62.230469 196.613281 112.765625 196.925781 116.714844 C 197.246094 120.660156 183.882812 118.285156 178.796875 117.40625 C 173.707031 116.527344 134.589844 103.152344 147.847656 104.292969 C 161.839844 105.492188 166.695312 106.175781 167.042969 102.855469 C 167.394531 99.535156 155.640625 78.746094 140.855469 75.101562 C 126.0625 71.460938 100.058594 91.40625 100.058594 91.40625 " fill-opacity="1" fill-rule="nonzero"/><path fill="#38b6ff" d="M 102.898438 117.945312 C 102.898438 117.945312 127.980469 92.640625 170.914062 109.417969 C 185.027344 114.929688 205.527344 117.488281 222.089844 117.496094 C 244.25 117.511719 260.933594 113.722656 260.933594 113.722656 C 260.933594 113.722656 247.117188 123.734375 221.523438 125.394531 C 192.792969 127.265625 178.839844 121.3125 155.933594 113.074219 C 126.871094 102.628906 102.898438 117.945312 102.898438 117.945312 " fill-opacity="1" fill-rule="nonzero"/><path fill="#38b6ff" d="M 39.195312 115.945312 C 39.195312 115.945312 60.28125 134.253906 90.121094 131.609375 C 106.863281 130.128906 116.214844 119.960938 139.730469 119.960938 C 163.496094 119.960938 173.261719 127.265625 189.90625 126.820312 C 170.597656 122.824219 149.511719 109.066406 128.871094 111.949219 C 108.730469 114.765625 105.339844 123.882812 83.921875 124.933594 C 57.078125 126.246094 39.195312 115.945312 39.195312 115.945312 " fill-opacity="1" fill-rule="nonzero"/><g fill="#38b6ff" fill-opacity="1"><g transform="translate(39.458652, 187.548367)"><g><path d="M 16.46875 0.828125 L 0.328125 -39.375 L 9.203125 -39.375 L 17.125 -19.28125 L 24.84375 -39 L 25.21875 -39 L 32.9375 -19.28125 L 40.875 -39.375 L 49.734375 -39.375 L 33.65625 0.65625 L 32.21875 0.65625 L 25 -16.796875 L 17.84375 0.828125 Z M 16.46875 0.828125 "/></g></g></g><g fill="#38b6ff" fill-opacity="1"><g transform="translate(89.574547, 187.548367)"><g><path d="M 24.78125 0 L 4.40625 0 L 4.40625 -39.375 L 24.125 -39.375 L 24.125 -31.5 L 12.28125 -31.5 L 12.28125 -23.625 L 22.640625 -23.625 L 22.640625 -15.75 L 12.28125 -15.75 L 12.28125 -7.875 L 24.78125 -7.875 Z M 24.78125 0 "/></g></g></g><g fill="#38b6ff" fill-opacity="1"><g transform="translate(117.331033, 187.548367)"><g><path d="M 2.59375 -2.53125 L 3.578125 -10.796875 C 5.085938 -9.734375 6.582031 -8.972656 8.0625 -8.515625 C 9.550781 -8.054688 10.898438 -7.785156 12.109375 -7.703125 C 13.328125 -7.628906 14.226562 -7.613281 14.8125 -7.65625 C 15.988281 -7.726562 16.988281 -8.140625 17.8125 -8.890625 C 18.644531 -9.648438 19.003906 -10.5625 18.890625 -11.625 C 18.816406 -12.757812 18.394531 -13.617188 17.625 -14.203125 C 16.851562 -14.796875 15.914062 -15.273438 14.8125 -15.640625 C 12.757812 -16.410156 10.84375 -17.300781 9.0625 -18.3125 C 7.28125 -19.320312 5.847656 -20.578125 4.765625 -22.078125 C 3.679688 -23.585938 3.140625 -25.445312 3.140625 -27.65625 C 3.140625 -29.851562 3.609375 -31.84375 4.546875 -33.625 C 5.484375 -35.40625 6.796875 -36.828125 8.484375 -37.890625 C 10.171875 -38.953125 12.097656 -39.539062 14.265625 -39.65625 C 15.296875 -39.726562 16.550781 -39.691406 18.03125 -39.546875 C 19.519531 -39.398438 21.53125 -38.882812 24.0625 -38 L 23.078125 -30.40625 C 20.910156 -31.28125 19.179688 -31.78125 17.890625 -31.90625 C 16.609375 -32.039062 15.65625 -32.09375 15.03125 -32.0625 C 13.632812 -31.976562 12.613281 -31.492188 11.96875 -30.609375 C 11.332031 -29.734375 11.050781 -28.75 11.125 -27.65625 C 11.238281 -26.550781 11.71875 -25.710938 12.5625 -25.140625 C 13.40625 -24.578125 14.394531 -24.09375 15.53125 -23.6875 C 17.582031 -22.945312 19.472656 -22.035156 21.203125 -20.953125 C 22.929688 -19.867188 24.316406 -18.566406 25.359375 -17.046875 C 26.410156 -15.523438 26.9375 -13.71875 26.9375 -11.625 C 26.9375 -9.457031 26.457031 -7.488281 25.5 -5.71875 C 24.539062 -3.957031 23.171875 -2.546875 21.390625 -1.484375 C 19.609375 -0.421875 17.488281 0.179688 15.03125 0.328125 C 14.300781 0.367188 13.300781 0.34375 12.03125 0.25 C 10.769531 0.15625 9.328125 -0.0976562 7.703125 -0.515625 C 6.085938 -0.941406 4.382812 -1.613281 2.59375 -2.53125 Z M 2.59375 -2.53125 "/></g></g></g><g fill="#38b6ff" fill-opacity="1"><g transform="translate(146.464338, 187.548367)"><g><path d="M 18.78125 0 L 10.90625 0 L 10.90625 -31.5 L 1.09375 -31.5 L 1.09375 -39.328125 L 28.578125 -39.328125 L 28.578125 -31.5 L 18.78125 -31.5 Z M 18.78125 0 "/></g></g></g><g fill="#38b6ff" fill-opacity="1"><g transform="translate(176.588954, 187.548367)"><g><path d="M 23.359375 0.546875 C 19.972656 0.546875 17.003906 -0.0195312 14.453125 -1.15625 C 11.898438 -2.289062 9.78125 -3.820312 8.09375 -5.75 C 6.40625 -7.675781 5.140625 -9.851562 4.296875 -12.28125 C 3.453125 -14.707031 3.03125 -17.195312 3.03125 -19.75 C 3.03125 -22.300781 3.453125 -24.785156 4.296875 -27.203125 C 5.140625 -29.628906 6.40625 -31.804688 8.09375 -33.734375 C 9.78125 -35.660156 11.898438 -37.191406 14.453125 -38.328125 C 17.003906 -39.472656 19.972656 -40.046875 23.359375 -40.046875 C 26.734375 -40.046875 29.695312 -39.472656 32.25 -38.328125 C 34.800781 -37.191406 36.921875 -35.660156 38.609375 -33.734375 C 40.296875 -31.804688 41.5625 -29.628906 42.40625 -27.203125 C 43.25 -24.785156 43.671875 -22.300781 43.671875 -19.75 C 43.671875 -17.195312 43.25 -14.707031 42.40625 -12.28125 C 41.5625 -9.851562 40.296875 -7.675781 38.609375 -5.75 C 36.921875 -3.820312 34.800781 -2.289062 32.25 -1.15625 C 29.695312 -0.0195312 26.734375 0.546875 23.359375 0.546875 Z M 23.359375 -7.59375 C 25.597656 -7.59375 27.523438 -8.035156 29.140625 -8.921875 C 30.753906 -9.804688 32.035156 -10.972656 32.984375 -12.421875 C 33.941406 -13.867188 34.585938 -15.453125 34.921875 -17.171875 C 35.253906 -18.898438 35.253906 -20.628906 34.921875 -22.359375 C 34.585938 -24.085938 33.941406 -25.675781 32.984375 -27.125 C 32.035156 -28.570312 30.753906 -29.734375 29.140625 -30.609375 C 27.523438 -31.492188 25.597656 -31.9375 23.359375 -31.9375 C 21.117188 -31.9375 19.1875 -31.492188 17.5625 -30.609375 C 15.945312 -29.734375 14.660156 -28.570312 13.703125 -27.125 C 12.753906 -25.675781 12.113281 -24.085938 11.78125 -22.359375 C 11.457031 -20.628906 11.457031 -18.898438 11.78125 -17.171875 C 12.113281 -15.453125 12.753906 -13.867188 13.703125 -12.421875 C 14.660156 -10.972656 15.945312 -9.804688 17.5625 -8.921875 C 19.1875 -8.035156 21.117188 -7.59375 23.359375 -7.59375 Z M 23.359375 -7.59375 "/></g></g></g><g fill="#38b6ff" fill-opacity="1"><g transform="translate(223.235293, 187.548367)"><g><path d="M 16.640625 0.828125 L 0.328125 -39.375 L 9.421875 -39.375 L 14.65625 -26.265625 L 17.515625 -18.125 L 20.328125 -26 L 25.609375 -39.375 L 34.703125 -39.375 L 18.390625 0.828125 Z M 16.640625 0.828125 "/></g></g></g><g fill="#38b6ff" fill-opacity="1"><g transform="translate(258.31642, 187.548367)"><g><path d="M 24.78125 0 L 4.40625 0 L 4.40625 -39.375 L 24.125 -39.375 L 24.125 -31.5 L 12.28125 -31.5 L 12.28125 -23.625 L 22.640625 -23.625 L 22.640625 -15.75 L 12.28125 -15.75 L 12.28125 -7.875 L 24.78125 -7.875 Z M 24.78125 0 "/></g></g></g><g fill="#38b6ff" fill-opacity="1"><g transform="translate(286.072906, 187.548367)"><g><path d="M 24.015625 0 L 16.078125 -15.03125 L 12.28125 -15.03125 L 12.28125 0 L 4.40625 0 L 4.40625 -39.375 L 19.9375 -39.375 C 22.289062 -39.375 24.28125 -38.890625 25.90625 -37.921875 C 27.539062 -36.953125 28.816406 -35.6875 29.734375 -34.125 C 30.660156 -32.5625 31.234375 -30.867188 31.453125 -29.046875 C 31.671875 -27.234375 31.53125 -25.453125 31.03125 -23.703125 C 30.539062 -21.960938 29.695312 -20.421875 28.5 -19.078125 C 27.3125 -17.742188 25.742188 -16.800781 23.796875 -16.25 L 32.9375 0 Z M 12.28125 -22.6875 L 19.21875 -22.6875 C 20.28125 -22.6875 21.132812 -22.976562 21.78125 -23.5625 C 22.425781 -24.15625 22.859375 -24.890625 23.078125 -25.765625 C 23.296875 -26.648438 23.296875 -27.53125 23.078125 -28.40625 C 22.859375 -29.289062 22.425781 -30.023438 21.78125 -30.609375 C 21.132812 -31.203125 20.28125 -31.5 19.21875 -31.5 L 12.28125 -31.5 Z M 12.28125 -22.6875 "/></g></g></g><g fill="#38b6ff" fill-opacity="1"><g transform="translate(319.850263, 187.548367)"><g/></g></g><g fill="#000000" fill-opacity="1"><g transform="translate(64.616664, 214.094292)"><g><path d="M 10.265625 -10.34375 C 10.222656 -11.269531 9.875 -11.992188 9.21875 -12.515625 C 8.5625 -13.046875 7.703125 -13.3125 6.640625 -13.3125 C 5.566406 -13.3125 4.738281 -13.085938 4.15625 -12.640625 C 3.582031 -12.203125 3.296875 -11.570312 3.296875 -10.75 C 3.296875 -10.300781 3.421875 -9.914062 3.671875 -9.59375 C 3.929688 -9.28125 4.382812 -9.046875 5.03125 -8.890625 L 9.203125 -7.9375 C 10.328125 -7.695312 11.160156 -7.234375 11.703125 -6.546875 C 12.253906 -5.859375 12.53125 -5.019531 12.53125 -4.03125 C 12.53125 -2.59375 12 -1.492188 10.9375 -0.734375 C 9.875 0.015625 8.492188 0.390625 6.796875 0.390625 C 5.503906 0.390625 4.484375 0.222656 3.734375 -0.109375 C 2.992188 -0.441406 2.332031 -0.96875 1.75 -1.6875 C 1.175781 -2.414062 0.890625 -3.425781 0.890625 -4.71875 L 2.75 -4.71875 C 2.75 -3.632812 3.109375 -2.789062 3.828125 -2.1875 C 4.546875 -1.59375 5.53125 -1.296875 6.78125 -1.296875 C 7.988281 -1.296875 8.925781 -1.507812 9.59375 -1.9375 C 10.269531 -2.363281 10.609375 -2.972656 10.609375 -3.765625 C 10.609375 -4.484375 10.40625 -5.019531 10 -5.375 C 9.601562 -5.726562 8.820312 -6.039062 7.65625 -6.3125 L 4.5 -7.046875 C 3.457031 -7.285156 2.675781 -7.703125 2.15625 -8.296875 C 1.632812 -8.890625 1.375 -9.617188 1.375 -10.484375 C 1.375 -11.796875 1.816406 -12.875 2.703125 -13.71875 C 3.585938 -14.570312 4.820312 -15 6.40625 -15 C 8.195312 -15 9.578125 -14.625 10.546875 -13.875 C 11.523438 -13.132812 12.050781 -11.957031 12.125 -10.34375 Z M 10.265625 -10.34375 "/></g></g></g><g fill="#000000" fill-opacity="1"><g transform="translate(84.430995, 214.094292)"><g><path d="M 6.328125 0 L 4.234375 0 L 0.421875 -14.609375 L 2.5625 -14.609375 L 5.28125 -2.71875 L 5.34375 -2.71875 L 8.609375 -14.609375 L 10.765625 -14.609375 L 14.046875 -2.71875 L 14.09375 -2.71875 L 16.828125 -14.609375 L 19.015625 -14.609375 L 15.15625 0 L 13.09375 0 L 9.75 -12.125 L 9.71875 -12.125 Z M 6.328125 0 "/></g></g></g><g fill="#000000" fill-opacity="1"><g transform="translate(110.170649, 214.094292)"><g><path d="M 3.625 0 L 1.65625 0 L 1.65625 -14.609375 L 3.625 -14.609375 Z M 3.625 0 "/></g></g></g><g fill="#000000" fill-opacity="1"><g transform="translate(121.753156, 214.094292)"><g><path d="M 13.734375 0 L 13.734375 -8.625 C 13.734375 -8.738281 13.738281 -9.289062 13.75 -10.28125 C 13.769531 -11.269531 13.78125 -11.9375 13.78125 -12.28125 L 13.71875 -12.28125 L 9.640625 0 L 7.671875 0 L 3.578125 -12.25 L 3.515625 -12.25 C 3.515625 -11.757812 3.519531 -11.0625 3.53125 -10.15625 C 3.550781 -9.25 3.5625 -8.738281 3.5625 -8.625 L 3.5625 0 L 1.65625 0 L 1.65625 -14.609375 L 4.46875 -14.609375 L 8.625 -2.25 L 8.6875 -2.25 L 12.828125 -14.609375 L 15.65625 -14.609375 L 15.65625 0 Z M 13.734375 0 "/></g></g></g><g fill="#000000" fill-opacity="1"><g transform="translate(145.395097, 214.094292)"><g><path d="M 13.734375 0 L 13.734375 -8.625 C 13.734375 -8.738281 13.738281 -9.289062 13.75 -10.28125 C 13.769531 -11.269531 13.78125 -11.9375 13.78125 -12.28125 L 13.71875 -12.28125 L 9.640625 0 L 7.671875 0 L 3.578125 -12.25 L 3.515625 -12.25 C 3.515625 -11.757812 3.519531 -11.0625 3.53125 -10.15625 C 3.550781 -9.25 3.5625 -8.738281 3.5625 -8.625 L 3.5625 0 L 1.65625 0 L 1.65625 -14.609375 L 4.46875 -14.609375 L 8.625 -2.25 L 8.6875 -2.25 L 12.828125 -14.609375 L 15.65625 -14.609375 L 15.65625 0 Z M 13.734375 0 "/></g></g></g><g fill="#000000" fill-opacity="1"><g transform="translate(169.037032, 214.094292)"><g><path d="M 3.625 0 L 1.65625 0 L 1.65625 -14.609375 L 3.625 -14.609375 Z M 3.625 0 "/></g></g></g><g fill="#000000" fill-opacity="1"><g transform="translate(180.619534, 214.094292)"><g><path d="M 11.328125 -14.609375 L 13.234375 -14.609375 L 13.234375 0 L 11.03125 0 L 3.578125 -11.8125 L 3.53125 -11.8125 L 3.53125 0 L 1.65625 0 L 1.65625 -14.609375 L 3.96875 -14.609375 L 11.28125 -2.8125 L 11.328125 -2.8125 Z M 11.328125 -14.609375 "/></g></g></g><g fill="#000000" fill-opacity="1"><g transform="translate(201.835666, 214.094292)"><g><path d="M 7.828125 -7.8125 L 14.25 -7.8125 L 14.25 0 L 12.96875 0 L 12.5 -1.890625 C 11.875 -1.097656 11.140625 -0.519531 10.296875 -0.15625 C 9.453125 0.207031 8.578125 0.390625 7.671875 0.390625 C 6.210938 0.390625 4.988281 0.0703125 4 -0.5625 C 3.019531 -1.207031 2.253906 -2.09375 1.703125 -3.21875 C 1.160156 -4.34375 0.890625 -5.75 0.890625 -7.4375 C 0.890625 -9.539062 1.515625 -11.328125 2.765625 -12.796875 C 4.015625 -14.265625 5.695312 -15 7.8125 -15 C 9.394531 -15 10.773438 -14.554688 11.953125 -13.671875 C 13.128906 -12.796875 13.8125 -11.632812 14 -10.1875 L 12.09375 -10.1875 C 11.863281 -11.144531 11.375 -11.894531 10.625 -12.4375 C 9.875 -12.976562 8.90625 -13.25 7.71875 -13.25 C 6.28125 -13.25 5.125 -12.707031 4.25 -11.625 C 3.375 -10.539062 2.9375 -9.109375 2.9375 -7.328125 C 2.9375 -5.253906 3.367188 -3.726562 4.234375 -2.75 C 5.097656 -1.78125 6.285156 -1.296875 7.796875 -1.296875 C 8.773438 -1.296875 9.601562 -1.488281 10.28125 -1.875 C 10.957031 -2.269531 11.476562 -2.800781 11.84375 -3.46875 C 12.207031 -4.132812 12.390625 -5.019531 12.390625 -6.125 L 7.828125 -6.125 Z M 7.828125 -7.8125 "/></g></g></g><g fill="#000000" fill-opacity="1"><g transform="translate(223.867028, 214.094292)"><g/></g></g><g fill="#000000" fill-opacity="1"><g transform="translate(235.171159, 214.094292)"><g><path d="M 3.625 -7.859375 L 7.5625 -7.859375 C 8.539062 -7.859375 9.28125 -8.078125 9.78125 -8.515625 C 10.28125 -8.953125 10.53125 -9.609375 10.53125 -10.484375 C 10.53125 -11.273438 10.289062 -11.878906 9.8125 -12.296875 C 9.332031 -12.710938 8.609375 -12.921875 7.640625 -12.921875 L 3.625 -12.921875 Z M 3.625 0 L 1.65625 0 L 1.65625 -14.609375 L 8.21875 -14.609375 C 9.53125 -14.609375 10.582031 -14.226562 11.375 -13.46875 C 12.164062 -12.71875 12.5625 -11.726562 12.5625 -10.5 C 12.5625 -9.238281 12.175781 -8.203125 11.40625 -7.390625 C 10.644531 -6.578125 9.582031 -6.171875 8.21875 -6.171875 L 3.625 -6.171875 Z M 3.625 0 "/></g></g></g><g fill="#000000" fill-opacity="1"><g transform="translate(254.667347, 214.094292)"><g><path d="M 13.015625 -7.3125 C 13.015625 -9.019531 12.5625 -10.4375 11.65625 -11.5625 C 10.75 -12.6875 9.503906 -13.25 7.921875 -13.25 C 6.359375 -13.25 5.117188 -12.6875 4.203125 -11.5625 C 3.285156 -10.4375 2.828125 -9.019531 2.828125 -7.3125 C 2.828125 -5.539062 3.289062 -4.101562 4.21875 -3 C 5.144531 -1.90625 6.378906 -1.359375 7.921875 -1.359375 C 9.429688 -1.359375 10.65625 -1.894531 11.59375 -2.96875 C 12.539062 -4.039062 13.015625 -5.488281 13.015625 -7.3125 Z M 15.046875 -7.3125 C 15.046875 -5.125 14.414062 -3.289062 13.15625 -1.8125 C 11.894531 -0.34375 10.148438 0.390625 7.921875 0.390625 C 5.679688 0.390625 3.929688 -0.34375 2.671875 -1.8125 C 1.421875 -3.289062 0.796875 -5.125 0.796875 -7.3125 C 0.796875 -9.5 1.421875 -11.328125 2.671875 -12.796875 C 3.929688 -14.265625 5.679688 -15 7.921875 -15 C 10.210938 -15 11.972656 -14.25 13.203125 -12.75 C 14.429688 -11.25 15.046875 -9.4375 15.046875 -7.3125 Z M 15.046875 -7.3125 "/></g></g></g><g fill="#000000" fill-opacity="1"><g transform="translate(276.837893, 214.094292)"><g><path d="M 13.015625 -7.3125 C 13.015625 -9.019531 12.5625 -10.4375 11.65625 -11.5625 C 10.75 -12.6875 9.503906 -13.25 7.921875 -13.25 C 6.359375 -13.25 5.117188 -12.6875 4.203125 -11.5625 C 3.285156 -10.4375 2.828125 -9.019531 2.828125 -7.3125 C 2.828125 -5.539062 3.289062 -4.101562 4.21875 -3 C 5.144531 -1.90625 6.378906 -1.359375 7.921875 -1.359375 C 9.429688 -1.359375 10.65625 -1.894531 11.59375 -2.96875 C 12.539062 -4.039062 13.015625 -5.488281 13.015625 -7.3125 Z M 15.046875 -7.3125 C 15.046875 -5.125 14.414062 -3.289062 13.15625 -1.8125 C 11.894531 -0.34375 10.148438 0.390625 7.921875 0.390625 C 5.679688 0.390625 3.929688 -0.34375 2.671875 -1.8125 C 1.421875 -3.289062 0.796875 -5.125 0.796875 -7.3125 C 0.796875 -9.5 1.421875 -11.328125 2.671875 -12.796875 C 3.929688 -14.265625 5.679688 -15 7.921875 -15 C 10.210938 -15 11.972656 -14.25 13.203125 -12.75 C 14.429688 -11.25 15.046875 -9.4375 15.046875 -7.3125 Z M 15.046875 -7.3125 "/></g></g></g><g fill="#000000" fill-opacity="1"><g transform="translate(299.00844, 214.094292)"><g><path d="M 3.59375 -1.75 L 11.03125 -1.75 L 11.03125 0 L 1.65625 0 L 1.65625 -14.609375 L 3.59375 -14.609375 Z M 3.59375 -1.75 "/></g></g></g></svg>